/vscmnt/brussel_pixiu_data/_data_brussel/112/vsc11236/PredSimResults/SUBJ06mtu3D/worker9.mot
version=1
nRows=4
nColumns=50
inDegrees=yes
endheader
                time	         pelvis_tilt	         pelvis_list	     pelvis_rotation	           pelvis_tx	           pelvis_ty	           pelvis_tz	       hip_flexion_r	     hip_adduction_r	      hip_rotation_r	        knee_angle_r	       ankle_angle_r	         mtp_angle_r	       hip_flexion_l	     hip_adduction_l	      hip_rotation_l	        knee_angle_l	       ankle_angle_l	         mtp_angle_l	    lumbar_extension	      lumbar_bending	     lumbar_rotation	 ercspn_r/activation	 intobl_r/activation	 extobl_r/activation	    abd_r/activation	    add_r/activation	hamstrings_r/activation	bifemsh_r/activation	glut_max_r/activation	iliopsoas_r/activation	rect_fem_r/activation	  vasti_r/activation	gastroc_r/activation	 soleus_r/activation	tib_ant_r/activation	 ercspn_l/activation	 intobl_l/activation	 extobl_l/activation	    abd_l/activation	    add_l/activation	hamstrings_l/activation	bifemsh_l/activation	glut_max_l/activation	iliopsoas_l/activation	rect_fem_l/activation	  vasti_l/activation	gastroc_l/activation	 soleus_l/activation	tib_ant_l/activation	
          1.25608538	         -6.86033400	         -2.53988048	          7.05232694	          1.40681562	          0.93031743	         -0.01414573	         31.17140692	         -0.18570062	         -3.36909443	         -3.86959233	          6.06222029	          0.21232764	        -10.09174531	         -2.14157895	          4.16004037	         -8.50064730	         10.47786353	         28.54543518	         -3.63685416	          0.68266494	          0.08791938	          0.12405393	          0.18418109	          0.01377399	          0.01209345	          0.09663850	          0.13696467	          0.22760618	          0.01240498	          0.12980463	          0.01000003	          0.01000000	          0.03196987	          0.01000000	          0.34343946	          0.06935496	          0.01000000	          0.01000000	          0.05532994	          0.01000007	          0.01437905	          0.12678814	          0.04575187	          0.37693573	          0.01209294	          0.01000004	          0.35214254	          0.32465219	          0.02138966	
          1.26864623	         -6.92808196	         -2.46455425	          7.07015567	          1.42389605	          0.92827006	         -0.01347755	         31.13747902	         -0.04700535	         -3.07875078	         -5.34242360	          5.63609808	          0.20734061	        -10.43169690	         -2.14676421	          3.73039395	         -9.68229183	          9.79080668	         30.49265121	         -3.32059833	          0.93010486	         -0.20281351	          0.10257924	          0.17794132	          0.01138961	          0.01000000	          0.12361407	          0.12214156	          0.18820579	          0.05795079	          0.10733443	          0.01000006	          0.01000001	          0.03182872	          0.02138985	          0.34883366	          0.10026337	          0.01000000	          0.01000001	          0.04575189	          0.04086026	          0.01702912	          0.10484012	          0.03783187	          0.38774255	          0.01000021	          0.01706958	          0.32582895	          0.30582682	          0.01768694	
          1.28120709	         -6.98141021	         -2.39165115	          7.03670142	          1.44128743	          0.92645551	         -0.01272378	         30.96472695	          0.08247534	         -2.78536711	         -6.79720504	          5.23054698	          0.19704320	        -10.65102397	         -2.14908174	          3.26788320	        -11.12429272	          8.94268118	         32.49315872	         -2.98913826	          1.19566291	         -0.48887510	          0.09845486	          0.14980002	          0.01000000	          0.05906945	          0.10636165	          0.11017985	          0.15562595	          0.10018135	          0.08875399	          0.01000000	          0.01000000	          0.02631892	          0.01768710	          0.41336622	          0.09555690	          0.01000000	          0.01000001	          0.03783188	          0.03378704	          0.01408323	          0.08669148	          0.03128287	          0.39189027	          0.01000052	          0.02586753	          0.29727767	          0.28253633	          0.01462520	
          1.29376794	         -7.02274337	         -2.31108347	          6.95124412	          1.45873649	          0.92508921	         -0.01187477	         30.70249548	          0.21749784	         -2.54094849	         -8.07105395	          4.62980802	          0.17536641	        -10.66500934	         -2.13524795	          2.77681961	        -12.93176719	          7.88005100	         34.53204401	         -2.67137659	          1.46623273	         -0.76177009	          0.10679032	          0.12386847	          0.01000000	          0.11571671	          0.14940520	          0.09666664	          0.12868589	          0.14202129	          0.07338998	          0.01000000	          0.01000000	          0.02176291	          0.01462533	          0.44410816	          0.12756431	          0.01000000	          0.01000000	          0.03128289	          0.04429857	          0.02749678	          0.07168451	          0.02586756	          0.39144827	          0.01214080	          0.02138966	          0.24668366	          0.24102153	          0.01209346	
